<svg xmlns="http://www.w3.org/2000/svg" viewBox="0 0 32 32">
  <!-- Background circle for contrast -->
  <circle cx="16" cy="16" r="15" fill="#FFF8E1"/>
  
  <!-- Coffee bean pixelated/blocky style -->
  <!-- Main bean shape -->
  <path d="M 8 12 L 8 20 L 10 22 L 12 23 L 20 23 L 22 22 L 24 20 L 24 12 L 22 10 L 20 9 L 12 9 L 10 10 Z" fill="#6F4E37"/>
  
  <!-- Inner darker color -->
  <path d="M 10 13 L 10 19 L 11 20 L 13 21 L 19 21 L 21 20 L 22 19 L 22 13 L 21 12 L 19 11 L 13 11 L 11 12 Z" fill="#5D3A2E"/>
  
  <!-- Center crack - pixelated S-curve -->
  <rect x="15" y="11" width="2" height="2" fill="#3E2723"/>
  <rect x="15" y="13" width="2" height="2" fill="#3E2723"/>
  <rect x="16" y="15" width="2" height="2" fill="#3E2723"/>
  <rect x="15" y="17" width="2" height="2" fill="#3E2723"/>
  <rect x="15" y="19" width="2" height="2" fill="#3E2723"/>
  
  <!-- Highlight pixels for shine effect -->
  <rect x="11" y="13" width="2" height="2" fill="#8B6858"/>
  <rect x="12" y="14" width="1" height="1" fill="#A0826D"/>
  
  <!-- Small accent pixels -->
  <rect x="19" y="18" width="1" height="1" fill="#4A3426"/>
  <rect x="12" y="12" width="1" height="1" fill="#967259"/>
</svg>